<?xml version="1.0" encoding="utf-8"?>
<!-- Generator: Adobe Illustrator 24.1.1, SVG Export Plug-In . SVG Version: 6.00 Build 0)  -->
<svg version="1.1" id="Layer_1" xmlns="http://www.w3.org/2000/svg" xmlns:xlink="http://www.w3.org/1999/xlink" x="0px" y="0px"
	 viewBox="0 0 35 35" style="enable-background:new 0 0 35 35;" xml:space="preserve">
<style type="text/css">
	.st0{fill:#353D4A;}
</style>
<g>
	<path class="st0" d="M17.5,0C7.9,0,0,7.9,0,17.5S7.9,35,17.5,35S35,27.1,35,17.5S27.1,0,17.5,0z M17.5,32C9.5,32,3,25.5,3,17.5
		S9.5,3,17.5,3S32,9.5,32,17.5S25.5,32,17.5,32z"/>
	<polygon class="st0" points="15.5,17.5 10.8,12.9 10.8,15.5 4.4,15.5 4.4,19.5 10.8,19.5 10.8,22.1 	"/>
	<polygon class="st0" points="24.2,15.5 24.2,12.9 19.5,17.5 24.2,22.1 24.2,19.5 30.6,19.5 30.6,15.5 	"/>
	<polygon class="st0" points="15.5,15.1 19.5,15.1 19.5,8.7 22.1,8.7 17.5,4 12.9,8.7 15.5,8.7 	"/>
	<polygon class="st0" points="19.5,19.9 15.5,19.9 15.5,26.3 12.9,26.3 17.5,31 22.1,26.3 19.5,26.3 	"/>
</g>
</svg>
